# xmcd
#
# Track frame offsets: 
#        150
#        13615
#        21751
#        32859
#        44242
#        53510
#        66976
#        78492
#        92515
#        104777
#
# Disc length: 1598 seconds
#
# Revision: 1
# Processed by: cddbd v1.5.1PL0 Copyright (c) Steve Scherf et al.
# Submitted via: ExactAudioCopy v0.95a5
#
DISCID=83063c0a
DTITLE=Various Artist - Country Number Ones
DYEAR=2000
DGENRE=Country
TTITLE0=Lynn Anderson/Keep Me In Mind
TTITLE1=Don Gibson/ Blue Blue Day
TTITLE2=Little Jimmy Dickens/ May The Bird Of Paradise Fly Up Your Nos
TTITLE2=e
TTITLE3=Donna Fargo/Superman
TTITLE4=Jimmy Dean/The First Thing Ev'ry Morning (And The Last Thing E
TTITLE4=v'ry Night)
TTITLE5=David Houston/Almost Persuaded
TTITLE6=Freddy Fender/Before The Next Teardrop Falls
TTITLE7=T. Graham Brown/Hell And High Water
TTITLE8=Bobby Helms/Fraulein
TTITLE9=Lee Greenwood/I Don't Mind The Thorns (If You're The Rose)
EXTD=YEAR: 2000
EXTT0=
EXTT1=
EXTT2=
EXTT3=
EXTT4=
EXTT5=
EXTT6=
EXTT7=
EXTT8=
EXTT9=
PLAYORDER=
